<?xml version="1.0" standalone="no"?>
<!DOCTYPE svg PUBLIC "-//W3C//DTD SVG 20010904//EN"
 "http://www.w3.org/TR/2001/REC-SVG-20010904/DTD/svg10.dtd">
<svg version="1.0" xmlns="http://www.w3.org/2000/svg"
 width="567.000000pt" height="567.000000pt" viewBox="0 0 567.000000 567.000000"
 preserveAspectRatio="xMidYMid meet">
<metadata>
Created by potrace 1.14, written by Peter Selinger 2001-2017
</metadata>
<g transform="translate(0.000000,567.000000) scale(0.100000,-0.100000)"
fill="#000000" stroke="none">
<path d="M4975 5576 c-121 -45 -309 -115 -417 -156 l-198 -73 -1 -101 c0 -55
-1 -263 -3 -461 -2 -260 -6 -372 -15 -405 -7 -25 -14 -49 -15 -55 -1 -5 -15
-48 -30 -95 -36 -106 -74 -146 -178 -186 l-73 -28 -395 -1 c-385 0 -396 -1
-415 -21 -17 -18 -71 -77 -226 -249 -93 -104 -154 -171 -165 -182 -8 -9 -34
13 -106 90 -124 133 -196 212 -245 266 l-40 44 -234 3 c-129 1 -298 3 -377 4
-79 1 -145 0 -147 -2 -5 -5 52 -66 505 -538 156 -163 383 -401 424 -445 26
-27 83 -87 128 -132 l80 -82 71 57 c40 31 80 64 90 72 11 8 24 20 31 25 6 6
72 60 146 120 74 60 137 111 140 114 3 3 32 28 65 55 33 28 87 75 120 106 101
95 206 130 370 125 106 -4 175 -26 265 -87 104 -69 167 -156 228 -315 44 -114
47 -135 46 -328 -2 -258 -28 -361 -130 -522 -72 -113 -271 -278 -441 -365
-246 -127 -323 -104 -628 192 -164 159 -338 320 -358 332 -11 5 -147 -159
-147 -177 0 -4 20 -32 44 -63 l44 -57 -1 -578 c0 -317 -2 -577 -6 -577 -11 1
-46 34 -73 70 -35 47 -94 193 -103 255 -4 28 -9 59 -11 70 -7 35 -16 217 -16
316 l0 96 -47 -9 c-77 -14 -269 -16 -360 -2 -131 20 -263 72 -389 153 -34 23
-65 41 -69 41 -15 0 -144 105 -200 162 -82 84 -116 127 -172 223 -51 87 -86
164 -96 211 -55 261 -5 456 190 750 76 115 168 208 294 300 33 24 61 48 61 52
-1 4 -21 23 -46 42 -43 33 -190 181 -244 246 -74 87 -132 178 -167 259 -43
102 -47 151 -44 691 l3 511 -44 18 c-90 36 -743 287 -752 288 -6 1 -11 -72
-12 -178 -14 -1143 -14 -1239 2 -1299 35 -134 129 -271 237 -346 58 -41 64
-48 71 -84 5 -26 -4 -38 -72 -105 -124 -123 -178 -193 -275 -359 -77 -131
-107 -300 -102 -577 3 -139 8 -199 24 -265 12 -47 23 -95 26 -107 26 -114 200
-521 227 -531 4 -2 8 -8 8 -13 0 -8 87 -146 100 -159 3 -3 31 -37 62 -77 289
-362 716 -582 1148 -592 l45 -1 405 -474 405 -475 40 42 c22 23 78 85 125 136
105 116 89 98 190 211 46 52 91 102 100 111 8 9 42 47 75 84 33 38 65 73 70
79 6 6 53 58 105 116 52 58 102 112 110 121 9 10 42 20 85 25 39 4 72 8 75 9
3 0 26 4 51 8 42 7 89 16 114 21 6 1 19 5 30 9 11 3 32 8 46 11 59 10 251 80
346 127 90 44 250 144 313 195 197 161 330 316 443 516 54 96 129 272 141 328
3 14 8 36 11 50 14 62 25 124 31 182 3 35 8 66 11 70 5 10 4 315 -1 358 -3 19
-8 58 -12 85 -27 216 -139 515 -247 662 -36 50 -131 143 -182 179 -39 27 -30
44 42 79 37 18 86 57 133 104 123 123 184 265 212 484 19 156 15 771 -7 992
-4 45 -18 233 -18 253 0 6 -7 12 -16 11 -9 0 -115 -37 -236 -83z"/>
<path d="M1772 3255 c-187 -68 -293 -237 -261 -411 8 -42 61 -134 77 -134 4 0
25 17 47 38 23 20 90 80 150 132 61 52 117 102 125 110 8 8 49 44 90 80 41 36
89 77 105 93 l30 28 -25 19 c-89 70 -223 88 -338 45z"/>
<path d="M3133 2864 c-221 -175 -240 -192 -227 -201 7 -4 115 -108 240 -229
126 -122 258 -249 294 -284 36 -34 112 -108 170 -164 124 -120 130 -125 129
-94 -2 23 9 148 16 198 2 14 7 50 10 80 4 30 10 73 14 96 16 87 -6 202 -54
271 -12 18 -115 127 -228 243 l-206 209 -158 -125z"/>
<path d="M2269 2629 c-352 -362 -339 -348 -367 -408 -50 -109 -24 -258 52
-298 17 -10 55 -17 86 -17 50 -1 58 2 91 34 20 19 60 57 90 84 30 27 112 103
183 170 145 135 140 130 222 205 32 30 89 83 126 117 l66 62 -71 79 c-39 43
-89 97 -110 120 -22 24 -54 58 -71 78 -17 19 -34 35 -37 35 -3 0 -120 -118
-260 -261z"/>
</g>
</svg>
